<!--

<?xml version="1.0" standalone="no"?>
<!DOCTYPE svg PUBLIC "-//W3C//DTD SVG 20010904//EN"
 "http://www.w3.org/TR/2001/REC-SVG-20010904/DTD/svg10.dtd">


width="1141.000000pt"

height="1161.000000pt"
-->

<svg version="1.0" xmlns="http://www.w3.org/2000/svg"
 width="20em" height="20em" viewBox="0 0 1141.000000 1161.000000"
 preserveAspectRatio="xMidYMid meet">

<g transform="translate(0.000000,1161.000000) scale(0.100000,-0.100000)"
fill="#000000" stroke="none">
<path d="M0 5805 l0 -5805 5705 0 5705 0 0 5805 0 5805 -5705 0 -5705 0 0
-5805z m5588 4818 l112 -6 0 -104 0 -103 -30 0 -31 0 3 -62 3 -63 93 -3 92 -3
0 66 0 65 -30 0 -30 0 0 105 0 105 188 -2 187 -3 -2 -75 c-1 -41 -2 -87 -3
-102 0 -23 -5 -28 -23 -28 -24 0 -24 -1 -30 -157 -4 -87 -7 -204 -7 -260 l0
-103 30 0 30 0 0 -105 0 -105 -191 0 -191 0 5 103 c3 56 6 103 6 105 1 1 12 2
26 2 25 0 25 1 25 80 l0 80 -90 0 -90 0 0 -80 c0 -79 0 -80 25 -80 l25 0 0
-105 0 -105 -182 2 -183 3 0 105 0 105 28 3 27 3 0 255 0 254 -25 0 -25 0 0
103 c0 57 3 107 7 110 8 9 106 9 251 0z m1363 -228 l58 -90 -60 -300 c-33
-165 -62 -307 -64 -315 -3 -8 -45 -41 -93 -72 l-88 -58 -149 30 c-83 17 -174
35 -203 41 -53 11 -54 12 -111 99 l-58 87 13 74 c7 41 35 182 61 314 l48 240
91 61 90 61 204 -41 203 -41 58 -90z m-2312 39 c47 -26 87 -48 89 -49 5 -5 61
-200 58 -203 -8 -8 -241 -70 -248 -66 -4 3 -8 11 -8 17 0 34 -23 88 -42 98
-29 16 -144 -16 -159 -43 -15 -27 107 -455 133 -469 12 -6 39 -4 84 7 79 20
92 38 74 103 -10 37 -14 41 -33 35 -50 -16 -53 -11 -93 151 -5 18 10 24 150
64 86 25 158 43 160 40 2 -2 27 -80 54 -174 l50 -170 -45 -85 c-25 -47 -52
-92 -61 -101 -23 -22 -377 -122 -403 -114 -11 4 -55 26 -98 51 l-79 44 -20 68
c-11 37 -51 175 -88 306 l-68 239 49 94 50 94 65 19 c36 11 117 35 180 54 63
18 126 34 139 35 13 1 63 -20 110 -45z m2737 -89 c71 -31 146 -63 166 -73 l37
-17 -39 -90 c-37 -86 -40 -90 -68 -88 -33 3 -18 32 -147 -272 -39 -93 -70
-178 -67 -188 7 -27 131 -81 158 -68 15 7 47 70 113 226 51 120 90 224 87 231
-3 8 -12 14 -21 14 -8 0 -15 5 -15 11 0 9 68 177 76 188 5 6 318 -123 337
-139 4 -3 -10 -46 -32 -96 -37 -85 -40 -89 -69 -87 -28 3 -31 -1 -65 -80 -19
-45 -69 -164 -112 -263 l-77 -182 -87 -36 c-48 -20 -97 -36 -109 -36 -12 0
-61 17 -109 39 -49 21 -130 56 -182 77 -51 22 -96 46 -98 54 -3 8 -20 52 -39
98 l-33 83 70 167 c39 92 88 208 110 258 21 50 39 96 39 102 0 6 -9 14 -20 17
-11 3 -20 11 -20 17 0 15 74 188 81 188 3 0 64 -25 135 -55z m-3627 -199 l104
-34 147 -286 146 -286 -34 -103 -34 -102 -186 -93 -187 -94 -98 34 -99 34 -76
150 c-43 82 -108 211 -146 285 l-70 136 33 101 33 100 161 83 c89 45 171 88
182 95 11 8 20 14 20 14 0 0 47 -15 104 -34z m4759 -391 l167 -116 17 -82 c25
-119 24 -128 -28 -201 -25 -36 -49 -68 -53 -70 -4 -3 -50 24 -102 60 -52 35
-98 66 -104 68 -6 2 -5 10 2 22 53 80 51 96 -22 147 -70 48 -87 47 -125 -7
-24 -36 -28 -49 -21 -68 5 -13 56 -54 115 -93 58 -38 108 -77 111 -85 12 -28
35 -151 35 -184 0 -24 -18 -58 -70 -132 -38 -54 -71 -102 -72 -106 -2 -4 -51
-16 -110 -26 l-107 -19 -127 89 c-70 48 -146 101 -169 116 -43 27 -43 27 -64
132 l-21 105 48 70 c27 39 54 70 61 70 15 0 200 -127 201 -138 0 -5 -9 -20
-20 -34 -20 -26 -26 -59 -12 -79 16 -23 102 -74 125 -74 32 0 80 69 71 103 -3
14 -47 50 -118 99 l-113 77 -18 104 -18 105 79 112 c43 62 84 115 91 117 18 7
154 31 181 32 15 1 87 -43 190 -114z m-5493 -84 c21 -5 149 -161 377 -458 l40
-53 -12 -99 c-7 -55 -16 -104 -19 -108 -9 -13 -431 -344 -446 -349 -7 -3 -38
27 -73 73 -60 77 -61 78 -42 98 19 21 19 22 -119 197 -76 97 -147 189 -159
205 -19 27 -21 27 -39 10 -11 -9 -22 -17 -25 -17 -5 0 -128 156 -128 163 0 2
68 58 151 123 84 65 184 145 223 177 l71 57 89 -6 c48 -4 99 -9 111 -13z
m2019 -125 c32 -13 34 -17 45 -92 18 -120 -7 -190 -135 -374 -59 -85 -144
-252 -144 -282 0 -28 31 -65 67 -79 14 -5 86 -6 166 -3 102 4 177 1 267 -10
170 -22 637 -22 810 0 91 11 162 13 261 8 116 -5 140 -4 168 10 81 42 60 114
-107 361 -126 186 -163 284 -143 375 15 66 49 94 115 94 63 1 87 -15 104 -72
17 -57 86 -158 161 -235 86 -90 190 -170 386 -299 531 -347 806 -594 957 -858
39 -69 89 -227 95 -305 6 -69 7 -70 70 -137 150 -160 150 -251 2 -559 l-61
-127 63 -78 c35 -44 68 -82 72 -85 5 -3 65 8 135 26 70 17 168 40 219 50 85
17 93 17 117 2 56 -37 46 -97 -85 -531 -42 -138 -43 -168 -9 -236 33 -65 54
-75 193 -97 152 -25 177 -40 177 -109 0 -46 -29 -110 -140 -309 -89 -161 -91
-166 -91 -285 -1 -149 22 -198 120 -252 57 -33 170 -139 203 -193 22 -37 23
-103 3 -132 -19 -27 -186 -153 -282 -213 -41 -26 -76 -56 -82 -70 -27 -64 -43
-155 -48 -265 l-5 -120 55 -80 c113 -165 157 -245 157 -289 -1 -40 -10 -59
-41 -83 -20 -16 -212 -55 -379 -79 -148 -20 -184 -37 -280 -133 -61 -62 -68
-73 -94 -156 -40 -128 -81 -206 -145 -277 -97 -107 -190 -153 -341 -168 -54
-6 -106 -18 -129 -30 -22 -11 -93 -70 -158 -131 -138 -129 -252 -218 -333
-259 -64 -32 -238 -100 -257 -100 -47 0 6 61 69 79 74 22 200 83 275 133 70
46 137 108 267 246 80 83 137 110 261 123 53 5 119 18 145 28 142 54 241 181
288 371 32 126 52 152 187 241 84 56 112 65 235 78 97 11 265 41 338 60 33 9
42 17 47 41 6 26 -6 47 -98 177 -57 81 -116 167 -131 190 l-27 41 41 174 c23
95 46 189 51 209 8 33 22 45 131 115 160 103 268 184 268 201 0 8 -42 56 -92
107 -74 75 -109 102 -175 135 -60 30 -84 47 -87 64 -3 12 -7 95 -10 185 l-6
162 48 78 c27 42 86 144 132 226 96 170 96 176 7 190 -47 7 -57 12 -64 33 -8
24 -12 25 -111 26 -115 2 -108 -1 -144 87 -16 40 -23 75 -23 130 1 67 5 85 42
165 48 105 56 131 88 285 13 63 27 123 31 133 6 17 0 18 -92 16 -65 -1 -116
-8 -149 -20 -27 -10 -94 -30 -148 -45 -76 -21 -100 -24 -112 -14 -14 12 -142
179 -165 216 -11 18 -3 39 73 192 148 297 143 374 -33 498 -44 30 -80 59 -80
64 0 4 7 13 15 20 26 22 29 90 5 160 -31 94 -121 259 -192 353 -154 205 -513
499 -833 682 -249 142 -409 292 -550 513 -54 86 -60 92 -72 75 -26 -34 -25
-63 2 -151 35 -112 66 -174 163 -324 44 -68 87 -137 96 -155 34 -67 10 -161
-52 -208 -24 -18 -49 -21 -217 -26 -597 -21 -675 -22 -870 -9 -110 7 -308 14
-440 15 -148 1 -250 6 -266 12 -34 15 -79 69 -79 96 1 85 85 268 197 429 40
59 80 123 88 142 20 47 19 121 -2 156 l-17 29 -30 -60 c-40 -76 -119 -169
-253 -300 -85 -82 -150 -132 -303 -233 -338 -224 -632 -453 -770 -603 -61 -66
-181 -254 -243 -382 -23 -47 -27 -68 -27 -143 0 -52 4 -88 10 -88 23 0 6 -18
-56 -60 -190 -129 -197 -202 -45 -502 l89 -178 -90 -117 c-50 -65 -95 -117
-102 -117 -26 4 -205 56 -251 74 -61 24 -64 24 -87 4 -15 -14 -26 -15 -70 -6
-29 5 -55 8 -58 6 -7 -8 30 -245 52 -324 11 -41 39 -111 61 -155 51 -98 51
-125 5 -230 l-35 -80 -54 -8 c-30 -5 -79 -6 -110 -4 l-56 5 -12 -39 c-11 -37
-14 -39 -62 -45 -76 -10 -76 -15 4 -160 116 -210 164 -287 181 -292 17 -5 18
-15 13 -166 -3 -89 -11 -178 -18 -198 -17 -51 -55 -85 -156 -138 -67 -35 -99
-60 -147 -114 l-61 -68 30 -25 c44 -36 262 -186 316 -217 52 -30 44 -8 109
-274 22 -90 40 -174 40 -186 0 -12 -41 -81 -92 -152 -93 -131 -158 -229 -158
-238 0 -9 154 -64 240 -86 71 -19 101 -21 185 -16 l100 6 110 -90 c113 -93
127 -111 165 -215 13 -33 47 -110 76 -171 88 -182 174 -245 355 -259 156 -11
138 -1 309 -174 170 -172 249 -231 394 -294 168 -73 362 -111 696 -139 174
-14 834 -17 1140 -5 171 7 192 6 170 -7 -51 -29 -414 -51 -825 -50 -710 1
-1025 44 -1279 177 -99 51 -197 128 -341 268 -61 58 -125 114 -144 123 -18 10
-71 21 -118 26 -108 11 -198 41 -273 92 -106 71 -172 169 -223 335 -24 78 -51
129 -86 163 -74 70 -153 131 -168 129 -45 -6 -326 41 -456 78 -71 19 -97 49
-97 107 1 44 6 53 138 261 41 63 78 131 84 151 10 39 4 107 -18 195 -37 148
-92 215 -214 260 -19 7 -72 49 -118 93 -149 145 -140 172 134 401 l111 93 6
106 c9 134 -2 180 -59 269 -88 136 -174 326 -174 385 0 23 7 49 18 61 20 26
133 57 239 67 81 8 94 17 118 83 22 64 19 96 -26 259 -109 396 -117 439 -85
486 9 14 27 28 41 32 15 4 95 -10 193 -31 287 -65 263 -61 273 -43 5 9 32 43
59 76 28 33 50 65 50 71 0 6 -27 64 -59 129 -93 183 -104 216 -104 307 -1 69
3 87 27 135 16 30 54 80 86 110 55 53 57 57 63 120 15 143 79 304 175 440 57
80 85 112 187 210 159 154 306 265 730 549 313 211 448 342 515 504 34 81 87
105 164 73z m4289 -486 c53 -52 97 -99 97 -104 0 -6 -39 -49 -85 -96 l-84 -85
-71 70 c-60 60 -70 74 -65 96 5 23 -2 33 -53 78 l-60 51 -46 -51 c-25 -28 -46
-55 -46 -59 0 -15 21 -22 34 -11 9 8 31 -8 86 -64 l75 -75 -100 -100 -99 -100
-72 68 c-61 57 -71 71 -67 94 7 44 -11 40 -68 -18 l-54 -54 57 -57 c49 -48 59
-55 72 -43 14 11 26 3 86 -56 39 -38 69 -74 68 -81 -3 -13 -157 -173 -167
-173 -7 0 -481 473 -481 480 0 3 31 39 69 80 70 74 70 74 91 55 l21 -19 181
182 c181 180 182 181 163 202 -19 21 -18 21 55 95 l75 75 145 -143 c80 -79
189 -186 243 -237z m-2544 -109 c26 -37 41 -111 41 -210 1 -136 47 -199 228
-311 122 -76 193 -135 218 -183 8 -16 24 -63 34 -105 37 -144 101 -252 262
-436 63 -73 180 -277 166 -291 -3 -3 -21 19 -41 49 -43 64 -130 168 -240 285
-43 47 -90 101 -104 122 -27 42 -83 173 -83 196 0 9 -16 49 -36 90 -37 78 -76
113 -125 113 -14 0 -61 -9 -104 -20 -97 -25 -242 -27 -334 -4 -105 26 -111 40
-57 117 46 65 83 160 92 236 4 34 10 59 14 54 4 -4 17 -34 30 -66 24 -62 36
-72 20 -16 -22 74 -31 178 -24 292 4 64 10 117 15 117 4 0 17 -13 28 -29z
m-2079 -171 c0 -104 -5 -184 -15 -231 -9 -40 -13 -74 -10 -77 3 -3 5 0 5 6 0
17 50 126 55 120 3 -2 11 -40 19 -84 14 -84 36 -136 92 -217 19 -27 34 -54 34
-61 -1 -44 -73 -67 -230 -73 -105 -4 -139 -2 -211 16 -104 25 -132 26 -169 5
-34 -21 -83 -102 -105 -174 -47 -156 -102 -249 -224 -382 -76 -83 -200 -235
-250 -306 -36 -52 -35 -32 4 50 47 102 117 206 210 313 131 152 158 200 206
375 43 156 78 197 259 303 61 36 129 86 162 119 71 72 88 121 88 260 0 66 5
111 15 135 19 44 44 75 56 67 5 -3 9 -77 9 -164z m2202 85 c10 -11 32 -45 50
-75 58 -102 134 -185 240 -261 330 -240 366 -274 424 -398 19 -42 48 -101 64
-132 66 -128 86 -207 99 -394 10 -135 30 -194 96 -279 53 -70 85 -143 85 -196
0 -48 -27 -116 -53 -139 -16 -12 -17 -5 -17 90 0 161 -12 199 -117 369 -62
102 -83 177 -93 342 -10 171 -30 236 -93 300 -48 49 -134 101 -155 93 -7 -2
-11 -8 -8 -13 2 -4 1 -14 -3 -21 -5 -8 -18 19 -35 72 -29 94 -87 182 -152 233
-21 17 -81 59 -132 94 -51 35 -108 80 -127 101 -33 37 -145 246 -145 271 0 11
36 -17 72 -57z m-2354 -101 c-73 -151 -103 -184 -245 -278 -164 -107 -277
-250 -298 -378 -5 -26 -10 -36 -15 -28 -5 7 -6 19 -3 27 14 37 -102 -22 -164
-83 -72 -72 -94 -133 -104 -288 -16 -244 -41 -330 -128 -452 -65 -91 -83 -150
-89 -296 -2 -71 -7 -128 -11 -128 -15 0 -51 71 -57 112 -10 74 11 140 74 226
85 118 103 169 113 335 10 164 26 229 87 357 24 52 50 111 57 130 47 128 120
208 327 355 235 166 291 222 383 375 38 63 122 157 131 147 3 -2 -24 -62 -58
-133z m977 -569 c131 -19 233 -19 364 1 149 23 370 23 501 0 193 -34 416 -119
508 -194 105 -84 139 -137 302 -467 126 -256 160 -328 278 -578 67 -140 105
-201 167 -267 31 -33 45 -57 50 -87 8 -49 3 -51 -43 -23 -38 23 -52 25 -52 7
0 -7 46 -41 102 -77 56 -36 127 -90 158 -121 71 -72 141 -190 182 -309 30 -89
32 -104 33 -232 0 -75 -3 -140 -8 -144 -4 -4 -29 15 -55 42 -47 50 -139 104
-174 104 -56 0 -134 79 -162 162 -18 52 -18 55 2 133 12 43 20 81 18 82 -2 2
-20 -25 -41 -59 -72 -119 -163 -243 -194 -266 -37 -27 -150 -52 -235 -52 -63
0 -84 11 -110 58 -11 18 60 109 117 152 76 57 56 80 -31 36 -146 -74 -355
-106 -569 -87 -161 14 -223 31 -257 71 -37 45 -49 161 -13 131 7 -5 46 -23 88
-40 225 -89 435 -79 615 30 145 88 284 283 284 398 0 31 -6 44 -31 65 -17 14
-41 26 -55 26 -42 0 -25 23 73 99 100 78 110 100 25 57 -68 -35 -153 -66 -177
-66 -11 0 -38 16 -60 35 l-40 35 80 75 80 76 -95 -7 c-207 -13 -296 -42 -452
-149 -51 -35 -118 -81 -147 -101 -134 -92 -320 -179 -414 -194 -72 -11 -167 0
-221 25 -123 59 -180 217 -122 340 32 68 80 109 221 192 88 52 320 167 450
223 90 40 168 80 155 80 -3 0 -109 -34 -235 -75 -413 -136 -542 -219 -654
-424 l-28 -52 -31 54 c-46 82 -124 171 -194 220 -117 83 -222 126 -452 188
-145 38 -191 45 -124 19 67 -27 296 -133 400 -185 206 -104 294 -177 320 -270
48 -173 -75 -339 -262 -353 -78 -5 -166 16 -254 60 -103 52 -257 148 -351 219
-156 119 -260 162 -429 178 -58 6 -120 8 -137 4 -30 -6 -30 -6 36 -43 l66 -37
-41 -18 c-22 -10 -40 -22 -40 -27 0 -8 48 -4 93 9 25 6 21 -3 -18 -51 l-35
-43 -98 27 c-172 48 -166 51 -72 -40 77 -73 182 -141 197 -127 3 3 -4 21 -16
40 -32 52 -28 57 44 57 40 0 65 -4 65 -11 0 -6 -9 -13 -20 -16 -17 -5 -20 -14
-20 -59 l0 -54 -35 0 c-45 0 -96 21 -145 60 -42 33 -55 32 -85 -8 -50 -68 7
-207 139 -338 162 -161 396 -241 600 -205 59 10 199 72 231 102 20 20 27 6 23
-46 -9 -102 -65 -134 -269 -156 -85 -10 -134 -9 -226 0 -102 11 -299 53 -357
77 -11 4 -17 4 -14 -2 106 -183 102 -173 82 -195 -39 -44 -64 -49 -145 -33
-146 31 -231 73 -287 143 -35 43 -106 180 -117 224 -9 34 -28 48 -21 15 39
-172 37 -246 -9 -314 -14 -20 -25 -41 -25 -45 0 -5 -16 -9 -35 -9 -87 0 -202
-59 -270 -139 l-29 -35 -7 25 c-31 110 22 384 108 553 26 51 98 130 148 162
17 10 65 45 108 77 78 60 101 90 47 62 -40 -21 -42 -20 -34 23 9 49 19 68 141
261 74 117 166 290 313 587 177 357 216 429 261 478 90 98 198 162 364 216
244 78 468 95 740 55z m-2495 -1569 c92 -29 170 -63 170 -73 0 -4 -26 -59 -58
-122 -59 -118 -85 -149 -102 -121 -11 16 -72 200 -90 268 -6 24 -14 50 -17 58
-7 19 9 18 97 -10z m5420 4 c0 -49 -102 -350 -119 -350 -19 0 -145 244 -137
265 5 13 99 51 191 78 63 19 65 19 65 7z m-5519 -707 c2 -46 -3 -124 -12 -183
-10 -65 -47 -160 -62 -160 -5 0 -33 24 -62 54 -35 37 -71 90 -109 164 -31 61
-56 115 -56 121 0 10 57 15 223 19 67 2 77 0 78 -15z m5826 -7 c7 -6 -62 -146
-102 -206 -44 -70 -111 -140 -133 -140 -7 0 -19 15 -27 34 -18 42 -50 287 -41
311 6 16 18 17 154 11 81 -4 148 -9 149 -10z m-3895 -41 c90 -19 157 -42 275
-94 176 -77 407 -165 410 -155 10 29 19 30 105 20 47 -6 89 -14 92 -17 4 -3
55 2 115 13 105 17 137 28 488 166 162 63 230 77 378 77 218 0 279 -28 546
-252 164 -137 210 -177 288 -250 31 -29 59 -53 63 -53 5 0 8 -19 8 -42 1 -24
7 -56 13 -72 l13 -30 23 49 23 50 28 -34 c33 -39 80 -176 174 -506 36 -126 71
-246 77 -265 12 -40 9 -154 -14 -490 -45 -645 -56 -691 -190 -817 -52 -49 -59
-53 -105 -53 -36 0 -54 -5 -67 -20 -32 -36 -26 -14 15 53 46 76 47 83 20 90
-20 5 -20 6 4 42 14 20 32 57 40 83 21 64 100 524 122 705 l6 58 -33 -3 -34
-3 -26 -152 c-25 -150 -43 -213 -34 -117 8 79 35 599 35 673 0 37 3 70 6 74 4
3 22 -5 40 -20 19 -14 41 -23 49 -19 33 12 26 36 -26 103 -83 105 -109 131
-159 162 -46 28 -204 101 -219 101 -4 0 -14 -11 -21 -25 -15 -28 -30 -33 -30
-10 0 8 -2 15 -4 15 -2 0 -11 3 -20 6 -10 4 -21 -6 -35 -33 -23 -44 -27 -38
-36 60 l-7 68 -69 -101 c-71 -103 -104 -174 -169 -365 -112 -329 -171 -468
-236 -561 -78 -111 -157 -166 -285 -198 -75 -18 -246 -21 -354 -5 -374 54
-420 55 -745 25 -427 -40 -529 -35 -647 36 -93 55 -162 160 -238 363 -48 129
-96 260 -105 285 -12 39 -93 224 -154 354 -55 115 -57 118 -83 111 -33 -8 -43
-21 -43 -55 0 -29 -20 -67 -20 -39 0 9 -9 24 -20 34 -20 18 -21 18 -45 -5
l-25 -23 0 21 c0 19 -6 22 -39 22 -103 0 -214 -60 -297 -161 -43 -53 -139
-208 -132 -214 2 -2 30 14 61 35 32 22 59 40 61 40 2 0 6 -78 10 -172 8 -211
24 -482 32 -563 12 -113 -12 -43 -36 108 l-24 147 -34 0 c-27 0 -32 -3 -28
-17 3 -10 12 -80 21 -156 35 -311 78 -542 116 -623 29 -62 113 -147 162 -165
20 -7 37 -18 36 -24 0 -5 -21 -28 -45 -49 -44 -39 -45 -39 -87 -27 -104 31
-220 128 -265 221 -46 96 -72 264 -93 593 -9 143 -9 208 0 275 18 136 20 181
11 293 l-8 104 64 220 c35 121 77 261 92 310 29 89 30 90 68 100 85 22 225
132 335 264 66 79 80 101 85 140 6 42 12 50 73 98 92 73 267 159 371 182 105
24 235 26 332 6z m2773 -423 c-8 -8 -113 97 -131 130 -8 16 18 -5 62 -49 41
-41 73 -78 69 -81z m-3925 -111 c0 -12 -42 -42 -49 -36 -5 6 29 45 41 45 4 0
8 -4 8 -9z m-837 -320 c16 -36 36 -88 43 -116 16 -60 18 -159 4 -186 -14 -25
-66 -26 -74 -1 -3 9 -57 43 -125 76 -65 33 -129 67 -142 77 l-24 18 30 23
c143 114 241 185 248 181 5 -3 23 -35 40 -72z m5774 2 c137 -103 185 -145 176
-153 -4 -4 -66 -38 -138 -75 -71 -37 -136 -76 -144 -86 -7 -11 -24 -19 -38
-19 -18 0 -28 9 -39 37 -17 40 -14 89 12 183 14 50 72 180 80 180 2 0 43 -30
91 -67z m-1495 -830 l2 -78 3 65 c2 36 7 68 12 73 9 9 185 -59 202 -79 24 -29
-25 -289 -85 -447 -37 -100 -76 -175 -133 -262 -63 -96 -90 -131 -96 -125 -2
3 -22 111 -44 240 -22 129 -44 243 -48 253 -4 10 -3 17 4 17 6 0 16 -12 22
-26 5 -15 12 -24 15 -21 8 8 -21 61 -71 128 -24 33 -47 68 -50 79 -7 22 33
122 47 118 6 -2 32 -46 59 -98 27 -52 49 -87 49 -77 0 25 29 21 35 -5 23 -99
35 -179 37 -236 1 -46 3 -28 9 58 7 123 6 128 -32 287 -21 88 -39 168 -39 176
0 9 15 19 38 25 63 17 62 19 64 -65z m-4029 -97 c72 -107 97 -160 97 -212 0
-63 -24 -79 -119 -78 -73 1 -339 41 -353 53 -10 10 161 256 227 327 37 39 78
15 148 -90z m1075 102 c33 -12 34 -14 28 -55 -3 -23 -19 -97 -36 -165 -30
-122 -38 -238 -21 -283 6 -14 10 -3 15 40 14 122 28 185 41 185 8 0 15 -9 17
-20 2 -14 19 10 52 75 27 52 54 95 58 95 12 0 48 -79 48 -106 0 -11 -18 -45
-41 -75 -48 -63 -83 -128 -74 -137 3 -3 8 4 12 16 3 12 10 22 15 22 6 0 8 -7
5 -14 -6 -15 -45 -247 -68 -403 -7 -46 -16 -83 -20 -83 -15 0 -117 152 -163
242 -75 145 -137 358 -152 515 -5 52 -3 71 7 79 15 12 175 74 190 74 5 0 10
-26 10 -57 1 -32 4 -44 6 -28 12 104 12 104 71 83z m4260 -80 c80 -99 184
-256 177 -268 -3 -6 -17 -10 -30 -10 -13 0 -57 -7 -97 -15 -134 -29 -263 -37
-302 -21 -69 29 -55 114 41 258 106 160 122 164 211 56z m-3765 -319 c40 -11
107 -70 107 -94 0 -11 -15 -5 -51 20 -65 45 -83 49 -181 42 -85 -6 -92 3 -22
28 47 17 96 18 147 4z m2047 1 c20 -5 45 -16 55 -24 18 -13 13 -14 -42 -9 -81
7 -146 -11 -195 -55 -45 -41 -56 -37 -34 10 32 67 130 102 216 78z m25 -69
c48 -22 69 -44 91 -96 26 -63 21 -143 -13 -217 -28 -59 -120 -187 -135 -188
-4 0 -10 21 -14 48 -3 26 -12 76 -20 112 l-13 65 3 -82 c2 -46 1 -83 -2 -82
-4 0 -23 21 -43 47 -96 127 -115 195 -79 279 26 61 64 100 116 118 51 18 62
18 109 -4z m-2083 -18 c61 -33 97 -90 105 -166 5 -46 2 -61 -22 -103 -55 -99
-97 -164 -106 -164 -5 0 -9 35 -10 78 0 85 -16 75 -19 -13 -2 -27 -5 -63 -9
-80 l-7 -30 -57 57 c-79 78 -110 149 -111 249 -1 67 2 80 27 118 55 83 123
101 209 54z m1262 -46 c71 -40 60 -47 -73 -47 -67 0 -121 4 -121 9 0 10 47 43
75 53 39 12 81 7 119 -15z m405 -2 c57 -27 64 -45 10 -26 -45 16 -133 14 -176
-4 -47 -20 -50 -19 -27 6 47 53 113 61 193 24z m-877 5 c38 -11 98 -54 98 -71
0 -5 -16 -2 -36 6 -47 19 -154 19 -200 0 -36 -15 -60 -12 -48 6 9 16 108 62
144 68 3 1 22 -4 42 -9z m-387 -50 c53 -25 69 -39 88 -77 37 -72 14 -135 -93
-256 l-43 -48 -34 71 c-27 60 -36 70 -48 60 -11 -9 -18 -4 -38 27 -13 21 -28
53 -31 70 -13 59 39 141 104 166 28 10 55 7 95 -13z m1264 -26 c54 -31 101
-73 101 -89 0 -20 -70 -165 -79 -165 -5 0 -12 8 -16 18 -5 13 -16 -1 -44 -57
l-38 -75 -67 85 c-75 93 -86 115 -86 164 0 43 48 100 105 126 53 25 70 24 124
-7z m-819 -44 c31 -16 70 -71 70 -96 0 -14 -12 -48 -26 -77 -27 -52 -103 -167
-111 -167 -12 0 -97 90 -124 129 -21 32 -29 56 -29 88 0 74 35 115 43 51 3
-30 4 -30 5 7 2 48 24 82 55 87 25 4 91 -8 117 -22z m401 -5 c20 -34 39 -46
39 -25 0 6 6 10 14 10 19 0 28 -29 28 -86 0 -52 -22 -90 -100 -175 l-50 -54
-32 30 c-47 44 -91 111 -106 162 -17 55 -4 94 47 141 29 28 41 32 87 32 50 0
54 -2 73 -35z m1309 -435 c-29 -131 -77 -242 -147 -332 -41 -54 -129 -135
-137 -127 -2 2 31 57 75 122 43 64 79 119 79 121 0 3 -16 10 -36 16 l-36 12
-154 -153 c-125 -125 -156 -151 -165 -139 -49 74 -65 149 -49 236 15 79 53
140 121 194 66 52 110 75 225 115 50 18 122 51 160 74 l69 41 3 -63 c2 -34 -2
-87 -8 -117z m314 56 c-17 -35 -39 -52 -27 -20 5 14 1 16 -21 12 -15 -3 -24
-3 -21 0 9 9 80 49 83 47 2 -2 -5 -19 -14 -39z m-3289 -42 c122 -47 213 -78
320 -109 123 -37 228 -88 245 -119 11 -21 11 -36 2 -78 -6 -29 -15 -83 -18
-120 -8 -78 -13 -81 -77 -44 -308 175 -308 175 -365 159 -22 -5 -16 -13 75
-105 l98 -99 -40 7 c-87 15 -187 84 -246 171 -65 94 -121 237 -134 341 l-7 52
29 -11 c15 -6 69 -27 118 -45z m730 -258 c20 -15 74 -35 136 -51 75 -19 112
-34 131 -52 34 -32 30 -41 -7 -17 l-27 18 7 -100 c8 -118 -1 -149 -49 -169
-88 -37 -205 63 -236 200 -11 47 -5 195 8 195 3 0 20 -11 37 -24z m1576 -41
c29 -157 -90 -327 -229 -327 -53 0 -72 29 -72 106 1 33 5 81 10 106 10 54 7
59 -20 35 -29 -27 -38 -9 -9 19 13 14 71 39 134 60 61 20 121 43 135 51 31 17
40 9 51 -50z m-972 -103 c103 -155 109 -168 89 -207 l-15 -29 -39 54 -39 55
-3 -78 -3 -77 -57 0 c-50 0 -63 4 -96 32 -65 53 -81 119 -47 193 23 52 109
185 118 185 5 0 46 -58 92 -128z m454 68 c43 -47 73 -102 82 -152 14 -75 -68
-189 -144 -202 -52 -8 -69 0 -86 41 -13 30 -16 32 -34 21 -17 -10 -23 -10 -37
3 -25 26 -29 90 -8 125 21 34 175 204 185 204 4 0 23 -18 42 -40z m-1617 -845
c5 -7 34 -94 63 -192 29 -98 55 -184 57 -192 3 -10 57 37 152 132 81 81 154
147 162 147 24 0 264 -62 274 -71 6 -6 1 -46 -14 -105 -23 -96 -23 -96 -51
-90 -21 4 -29 1 -33 -12 -22 -72 -116 -455 -116 -472 0 -13 7 -20 20 -20 12 0
20 -7 20 -17 0 -17 -40 -184 -46 -192 -3 -3 -211 47 -310 75 l-50 14 25 101
c25 98 27 100 53 97 26 -4 28 -1 48 76 12 45 25 94 31 110 5 16 8 31 6 33 -2
1 -62 -56 -133 -127 -71 -71 -134 -130 -140 -130 -6 0 -35 81 -65 179 -30 99
-55 178 -57 176 -2 -2 -14 -43 -26 -92 -13 -48 -26 -98 -30 -109 -5 -18 -2
-23 19 -28 14 -4 25 -12 25 -20 0 -12 -35 -158 -44 -182 -3 -8 -60 3 -177 33
-96 24 -176 46 -178 49 -3 3 6 49 19 102 24 94 26 97 52 94 32 -3 27 -14 98
263 28 110 53 207 56 216 3 12 -3 19 -21 23 -14 4 -25 12 -25 20 0 12 35 158
44 183 6 14 276 -52 292 -72z m2547 -10 c6 -14 47 -183 47 -191 0 -2 -9 -4
-21 -4 -27 0 -25 -5 50 -121 33 -52 96 -150 140 -219 74 -117 81 -125 108
-122 30 3 30 3 52 -93 13 -53 20 -99 17 -102 -3 -4 -81 -25 -172 -48 -191 -48
-168 -57 -199 78 -14 60 -16 80 -6 86 6 4 9 15 5 25 -5 14 -14 16 -48 11 -83
-14 -141 -39 -144 -61 -2 -16 2 -22 14 -20 14 1 22 -18 40 -89 13 -49 24 -94
24 -100 0 -8 -199 -64 -326 -92 -19 -4 -23 4 -46 96 -14 55 -23 103 -20 106 3
3 15 5 27 5 20 0 21 7 38 248 10 136 20 260 23 275 4 20 2 28 -8 26 -7 -1 -18
-1 -24 0 -12 1 -60 188 -51 198 5 4 443 119 468 122 4 1 9 -6 12 -14z m-738
-275 l0 -105 -27 0 -28 1 0 -191 c0 -104 3 -220 7 -257 5 -63 8 -68 29 -68 24
0 24 -1 24 -110 l0 -110 -185 0 -185 0 0 104 0 105 28 3 27 3 0 92 c0 156 1
156 -105 -25 -73 -124 -97 -159 -106 -149 -9 10 -92 144 -177 285 -11 18 -22
31 -24 28 -3 -3 -2 -57 2 -121 7 -113 7 -115 31 -115 24 0 24 -1 24 -105 l0
-105 -147 -1 c-82 -1 -164 -2 -183 -3 l-35 -1 -3 108 -3 107 32 0 32 0 -6 173
c-4 94 -7 211 -7 260 l0 87 -29 0 -29 0 -1 105 -2 105 154 0 154 0 110 -181
111 -181 87 149 c124 211 125 211 136 215 5 2 73 3 152 3 l142 0 0 -105z"/>
<path d="M5350 10521 c0 -79 0 -80 28 -83 23 -3 27 -7 26 -35 0 -18 -1 -145
-2 -283 l-2 -250 -25 0 c-23 0 -25 -4 -26 -52 -2 -62 -1 -100 3 -103 2 -2 74
-5 161 -7 l157 -4 0 83 c0 82 0 83 -25 83 l-26 0 3 103 c2 56 6 101 11 100 4
-2 54 -3 112 -3 l105 0 0 -100 0 -100 -30 0 -30 0 0 -85 0 -85 165 0 165 0 0
85 0 85 -30 0 -30 0 0 280 0 280 30 0 30 0 0 85 0 85 -162 -2 -163 -3 -3 -82
-3 -83 30 0 31 0 0 -85 0 -85 -115 0 -115 0 0 84 0 85 28 3 c27 3 27 4 30 86
l3 82 -166 0 -165 0 0 -79z m298 -3 c-3 -49 -5 -53 -30 -56 l-28 -3 0 -115 0
-114 145 0 145 0 0 115 0 115 -30 0 c-30 0 -30 1 -30 55 l0 55 135 0 135 0 0
-55 c0 -51 -2 -55 -23 -55 -24 0 -24 0 -30 -172 -4 -95 -7 -235 -7 -310 l0
-137 28 -3 c25 -3 27 -6 27 -53 l0 -50 -132 -3 c-144 -3 -135 -6 -135 53 0 51
2 55 30 55 l27 0 4 130 3 130 -146 0 -146 0 0 -130 0 -130 25 0 c24 0 25 -3
25 -55 l0 -55 -130 0 c-128 0 -130 0 -132 23 -6 80 0 98 32 90 21 -6 21 -7 25
565 0 55 -1 57 -27 60 -26 3 -28 6 -28 53 l0 49 136 0 135 0 -3 -52z"/>
<path d="M6409 10491 l-76 -49 -16 -69 c-8 -37 -36 -177 -62 -310 l-48 -242
52 -79 52 -79 142 -27 c78 -15 167 -32 197 -38 l56 -11 71 47 c39 25 75 52 80
59 9 12 123 567 123 600 0 9 -23 52 -52 95 l-51 78 -171 33 c-94 18 -182 35
-196 38 -18 3 -46 -10 -101 -46z m266 -16 c98 -20 180 -37 181 -38 45 -61 94
-140 94 -152 0 -17 -109 -567 -113 -571 -31 -28 -143 -94 -158 -94 -12 0 -60
9 -108 19 -47 11 -120 27 -162 36 l-77 16 -47 71 -47 71 56 286 c31 157 60
289 65 294 5 5 38 29 73 53 34 24 63 44 63 44 0 0 81 -16 180 -35z"/>
<path d="M6527 10363 c-15 -10 -30 -27 -32 -38 -7 -28 -49 -237 -76 -372 l-22
-113 26 -33 c23 -30 33 -34 117 -49 l93 -17 31 24 c31 23 32 29 79 270 l48
246 -21 33 c-22 36 -59 50 -161 61 -42 4 -60 2 -82 -12z m216 -65 l19 -26 -36
-183 c-59 -290 -55 -277 -86 -299 -27 -19 -30 -19 -104 -3 -118 26 -116 20
-61 299 25 125 45 229 45 230 0 1 14 11 31 21 29 19 33 19 101 4 54 -12 76
-23 91 -43z"/>
<path d="M6558 10318 c-12 -9 -27 -69 -53 -198 -20 -102 -40 -202 -44 -223 -7
-29 -5 -42 8 -57 21 -25 135 -49 159 -34 12 8 28 66 59 215 58 282 58 280 -27
293 -25 4 -54 9 -65 12 -11 3 -28 -1 -37 -8z"/>
<path d="M4350 10409 c-113 -33 -181 -58 -192 -70 -9 -11 -33 -49 -53 -85
l-37 -66 32 -111 c17 -62 40 -141 50 -177 48 -169 90 -313 92 -315 2 -1 40
-23 85 -49 l81 -47 191 56 c104 30 192 55 195 55 3 0 6 4 6 9 0 5 18 41 41 81
46 82 47 65 -14 275 -19 65 -39 121 -45 123 -11 3 -98 -19 -214 -55 -27 -8
-48 -19 -48 -24 0 -6 8 -37 17 -69 l18 -59 36 5 c34 6 36 5 47 -34 27 -89 9
-120 -86 -147 -57 -17 -65 -17 -95 -3 -32 15 -34 21 -96 238 -62 215 -63 223
-48 254 13 28 25 36 74 49 33 10 69 17 82 17 31 0 68 -41 77 -84 6 -35 8 -37
38 -30 17 3 57 15 90 25 32 11 65 19 72 19 17 0 13 20 -20 119 -20 59 -24 65
-76 93 -30 16 -65 36 -77 44 -12 8 -28 14 -35 13 -7 0 -92 -23 -188 -50z m248
-15 c37 -20 72 -41 78 -48 12 -12 44 -101 44 -122 0 -10 -107 -44 -139 -44 -6
0 -15 18 -21 39 -11 44 -66 86 -97 77 -167 -48 -162 -45 -182 -84 -18 -36 -18
-39 -1 -97 9 -33 34 -118 55 -190 72 -250 66 -235 106 -256 34 -17 41 -17 81
-4 23 8 62 19 85 25 31 8 46 19 62 46 l21 35 -23 80 c-21 76 -23 80 -47 74
-13 -4 -29 -7 -34 -8 -13 -3 -31 73 -20 82 11 10 196 62 201 57 2 -2 22 -65
44 -140 l39 -137 -42 -77 -42 -78 -173 -50 -173 -51 -79 44 c-62 34 -80 49
-85 70 -3 16 -39 143 -80 283 l-75 255 41 75 c23 41 42 76 43 77 1 2 314 95
343 102 2 1 34 -15 70 -35z"/>
<path d="M7220 10305 c-36 -79 -37 -91 -9 -98 23 -6 22 -18 -11 -92 -10 -22
-34 -80 -55 -130 -20 -49 -43 -103 -50 -120 -8 -16 -32 -72 -54 -123 l-40 -93
35 -87 35 -88 127 -53 c70 -30 151 -65 180 -77 29 -13 59 -24 68 -24 8 0 50
14 94 31 l78 31 55 127 c30 69 83 193 117 274 62 144 64 148 90 142 25 -5 29
-2 58 66 30 68 33 89 11 89 -6 0 -67 25 -137 55 -70 30 -132 55 -137 55 -6 0
-23 -32 -39 -72 l-29 -71 23 -17 c22 -16 22 -20 10 -51 -12 -32 -81 -194 -120
-284 -9 -22 -27 -65 -40 -96 -32 -79 -59 -88 -153 -52 -57 23 -71 33 -82 60
-13 30 -11 38 19 110 19 43 52 123 75 178 95 226 88 215 121 209 24 -5 29 -2
43 33 8 21 22 54 31 74 l15 37 -137 57 c-75 32 -143 60 -149 62 -8 3 -24 -20
-43 -62z m165 -21 c60 -26 114 -50 118 -54 5 -4 -2 -28 -14 -53 -19 -38 -25
-44 -40 -36 -29 15 -37 11 -52 -33 -8 -24 -56 -140 -107 -258 -90 -209 -92
-215 -79 -252 10 -31 21 -43 58 -59 100 -45 123 -51 166 -39 38 11 42 16 72
88 18 42 66 157 108 255 41 98 75 182 75 187 0 5 -9 12 -20 15 -11 3 -20 13
-20 20 0 21 32 85 42 85 13 0 221 -89 231 -99 4 -4 -2 -28 -13 -54 -19 -44
-22 -46 -45 -35 -14 6 -26 9 -28 7 -2 -2 -18 -38 -35 -79 -17 -41 -70 -165
-116 -275 l-85 -200 -80 -32 -81 -32 -72 30 c-40 16 -82 34 -93 39 -11 5 -49
21 -85 36 -36 15 -71 33 -79 40 -7 7 -27 45 -43 85 l-29 73 22 55 c21 53 36
88 78 184 92 210 132 320 120 328 -8 5 -17 9 -21 9 -5 0 -8 7 -8 15 0 17 31
85 39 85 3 0 55 -21 116 -46z"/>
<path d="M3530 10090 c-63 -33 -141 -72 -173 -87 l-58 -28 -29 -92 -30 -93
135 -262 c74 -145 137 -270 140 -278 5 -16 154 -70 191 -70 10 0 95 41 189 90
l170 89 29 89 28 90 -75 148 c-42 82 -107 207 -144 278 l-68 130 -85 28 c-46
15 -89 28 -95 28 -5 0 -62 -27 -125 -60z m206 4 l84 -26 66 -132 c37 -72 98
-191 135 -264 l69 -132 -27 -84 -28 -83 -162 -82 -163 -82 -83 25 -83 26 -135
264 -134 264 27 83 28 84 157 81 c87 45 160 82 162 83 1 1 41 -11 87 -25z"/>
<path d="M3538 9941 c-81 -44 -86 -48 -97 -89 -9 -28 1 -53 104 -254 111 -220
114 -223 154 -238 41 -14 42 -14 124 27 77 38 84 44 95 82 l13 41 -115 222
c-104 203 -118 224 -148 235 -46 17 -55 15 -130 -26z m172 -63 c14 -28 62
-123 107 -211 78 -154 81 -162 69 -192 -18 -43 -123 -99 -167 -90 -37 8 -43
17 -160 248 -79 157 -89 182 -83 213 6 33 13 39 75 69 91 44 123 36 159 -37z"/>
<path d="M3553 9892 c-80 -42 -79 -46 40 -276 67 -128 111 -203 125 -209 28
-13 146 50 150 81 3 21 -178 391 -205 418 -21 20 -51 17 -110 -14z"/>
<path d="M8218 9833 l-78 -15 -75 -109 -76 -109 16 -88 c8 -48 15 -90 15 -93
0 -3 52 -41 115 -84 100 -69 116 -83 121 -113 5 -27 1 -41 -24 -75 -44 -62
-76 -65 -149 -14 -32 23 -61 46 -65 52 -13 18 -9 72 7 85 8 7 15 18 15 25 0
12 -168 132 -173 124 -85 -117 -88 -127 -62 -232 7 -31 13 -61 13 -65 -1 -4
73 -58 163 -121 l163 -113 85 11 c47 7 92 16 100 21 23 12 151 204 151 226 0
11 -7 55 -16 99 l-16 80 -111 75 c-131 89 -142 108 -101 177 44 76 79 81 164
23 72 -49 86 -89 49 -139 -12 -17 -21 -32 -18 -34 2 -2 42 -30 88 -61 l84 -58
19 23 c10 13 30 44 45 68 l26 45 -16 84 c-18 94 -20 98 -80 138 -23 16 -92 64
-154 107 -61 42 -120 77 -130 76 -10 -1 -53 -8 -95 -16z m257 -118 l150 -104
12 -58 c19 -90 16 -122 -13 -165 -27 -38 -27 -38 -53 -21 -114 73 -112 71 -85
94 13 10 15 24 10 63 -3 27 -7 50 -8 51 -2 1 -36 25 -76 52 -70 49 -74 51
-114 41 -23 -5 -43 -10 -44 -11 -1 -1 -19 -26 -39 -56 -33 -47 -36 -58 -31
-96 6 -34 14 -46 44 -66 20 -14 71 -48 113 -77 l76 -52 17 -87 16 -88 -62 -91
-61 -92 -87 -17 -88 -16 -49 33 c-40 29 -242 168 -251 173 -1 1 -9 39 -17 85
-15 87 -13 100 29 154 15 18 17 18 71 -20 69 -47 71 -51 50 -74 -13 -15 -15
-27 -8 -62 8 -39 16 -48 83 -95 76 -53 87 -56 150 -37 27 8 80 98 80 136 0 47
-17 66 -135 145 l-99 68 -14 87 -14 87 57 86 c32 47 63 89 69 93 8 5 128 35
166 41 3 0 72 -46 155 -104z"/>
<path d="M2754 9613 c-39 -32 -135 -107 -212 -168 -78 -60 -141 -113 -142
-117 0 -3 16 -25 36 -49 19 -23 42 -51 49 -62 14 -20 15 -20 35 -2 25 22 15
32 136 -125 49 -63 121 -155 161 -205 l72 -90 -20 -21 -21 -22 48 -59 c26 -32
50 -59 54 -61 4 -1 65 43 136 98 71 56 164 128 206 161 42 32 80 64 84 71 4 7
13 53 20 103 12 82 12 92 -4 113 -9 12 -96 123 -192 246 l-175 223 -60 7 c-33
4 -78 9 -100 11 -37 5 -46 1 -111 -52z m188 11 l68 -7 181 -231 181 -231 -7
-80 c-4 -44 -10 -85 -13 -92 -6 -10 -166 -139 -336 -269 -64 -50 -63 -50 -108
15 -16 22 -16 25 3 40 19 16 19 17 -23 72 -24 31 -63 82 -88 115 -25 32 -49
64 -55 70 -5 6 -50 63 -100 127 -49 64 -94 116 -99 117 -5 0 -17 -7 -26 -15
-16 -14 -19 -13 -42 17 -13 18 -27 38 -31 44 -4 6 63 66 161 142 92 72 181
142 197 156 18 16 38 24 50 21 11 -2 50 -7 87 -11z"/>
<path d="M2757 9438 c-39 -32 -73 -62 -75 -67 -2 -5 34 -56 78 -112 45 -57
127 -163 183 -236 56 -73 108 -132 115 -133 7 0 46 27 87 61 60 49 75 66 77
90 0 16 1 34 2 40 1 5 -69 99 -154 209 -155 198 -155 198 -198 202 -39 3 -49
-2 -115 -54z m211 -66 c37 -47 102 -129 145 -183 103 -130 103 -147 0 -226
-23 -18 -46 -33 -51 -33 -9 0 -45 45 -274 339 -37 47 -68 89 -68 93 0 4 27 29
60 56 85 69 102 65 188 -46z"/>
<path d="M2798 9404 c-27 -20 -48 -40 -48 -44 0 -5 26 -42 58 -82 136 -171
223 -280 237 -300 13 -19 17 -20 38 -9 39 21 87 71 87 90 0 17 -58 98 -139
197 -14 17 -52 66 -85 108 -41 53 -65 76 -80 76 -11 0 -42 -17 -68 -36z"/>
<path d="M8875 9350 c-58 -59 -59 -60 -40 -80 19 -21 18 -22 -178 -217 -189
-190 -197 -196 -215 -180 -19 17 -21 15 -76 -40 -31 -31 -56 -60 -56 -64 0 -3
102 -106 226 -228 l227 -223 74 74 74 73 -61 59 c-51 50 -62 56 -76 46 -13
-11 -25 -3 -85 56 -38 37 -69 71 -69 74 0 3 30 36 66 74 l65 69 29 -28 c22
-21 27 -32 20 -45 -7 -13 3 -29 48 -73 l58 -57 84 85 84 85 -54 55 c-46 47
-59 55 -81 50 -21 -5 -31 0 -48 21 l-22 28 67 67 c77 78 69 79 164 -16 48 -47
53 -57 43 -73 -10 -17 -4 -26 48 -76 l59 -57 27 29 c16 15 47 48 71 73 l43 46
-226 224 c-125 123 -227 225 -229 226 -1 1 -29 -24 -61 -57z m272 -192 l202
-203 -44 -47 c-24 -27 -48 -48 -53 -48 -4 0 -23 16 -42 35 -26 26 -31 37 -22
48 9 10 -9 33 -83 107 l-95 95 -92 -92 -92 -92 44 -46 c36 -36 50 -44 70 -40
20 4 33 -2 58 -28 l33 -34 -57 -62 c-32 -33 -62 -61 -69 -61 -6 0 -25 15 -43
33 -25 26 -29 36 -20 45 10 10 1 23 -39 64 l-52 52 -27 -30 c-14 -16 -54 -57
-87 -92 l-62 -62 90 -90 c86 -86 109 -102 117 -80 2 6 21 -8 43 -30 l39 -40
-49 -50 -50 -49 -210 204 -210 204 37 38 c36 36 38 36 57 19 19 -18 24 -13
233 199 117 119 215 222 217 228 2 5 -4 16 -15 24 -17 12 -16 15 16 48 19 19
39 35 45 35 5 0 101 -91 212 -202z"/>
<path d="M6770 8511 c0 -6 4 -13 10 -16 6 -3 7 1 4 9 -7 18 -14 21 -14 7z"/>
<path d="M4360 7555 c-10 -12 4 -31 80 -112 50 -54 97 -98 103 -98 29 0 5 39
-79 128 -77 81 -94 94 -104 82z"/>
<path d="M6965 7503 c-123 -134 -129 -143 -114 -158 12 -12 27 1 104 92 50 58
90 111 90 116 0 26 -25 10 -80 -50z"/>
<path d="M6296 7510 c-90 -66 -196 -117 -271 -132 -44 -8 -70 -20 -98 -45 -60
-53 -178 -194 -171 -204 3 -5 31 17 63 49 47 48 85 72 221 141 91 46 183 96
205 111 51 35 140 130 122 130 -1 0 -33 -23 -71 -50z"/>
<path d="M5410 7521 c0 -12 25 -48 55 -81 31 -33 58 -74 62 -90 6 -32 13 -36
29 -20 7 7 25 1 55 -20 24 -16 51 -30 59 -30 15 0 -131 153 -212 222 -43 35
-48 38 -48 19z"/>
<path d="M5072 7501 c41 -52 109 -96 282 -180 144 -71 177 -92 232 -146 56
-55 64 -60 64 -39 0 18 7 25 28 30 54 12 76 20 80 32 2 8 -16 12 -63 12 -74 0
-94 8 -145 55 -30 28 -472 265 -494 265 -4 0 3 -13 16 -29z"/>
<path d="M5945 7474 c-11 -8 -44 -27 -74 -42 -67 -33 -111 -76 -111 -108 0
-21 4 -24 38 -24 67 0 82 9 82 45 0 24 10 43 38 72 51 53 66 73 56 73 -5 0
-18 -8 -29 -16z"/>
<path d="M5438 6974 c-4 -3 6 -31 20 -62 23 -49 27 -70 27 -149 l-1 -93 20 31
c40 64 31 177 -21 247 -24 32 -34 38 -45 26z"/>
<path d="M5932 6957 c-56 -60 -77 -164 -46 -235 l16 -37 15 60 c18 79 44 227
40 232 -2 1 -13 -7 -25 -20z"/>
<path d="M4960 5441 c-234 -43 -395 -198 -483 -461 -27 -83 -41 -140 -34 -140
3 0 27 30 53 68 26 37 49 69 51 71 1 2 5 2 8 -1 11 -11 185 -402 180 -406 -2
-2 -14 3 -27 12 -28 20 -38 20 -38 2 0 -7 37 -27 88 -46 75 -29 140 -69 190
-117 8 -8 30 -26 50 -41 21 -15 39 -29 42 -32 3 -4 22 -19 43 -35 26 -19 35
-31 27 -39 -5 -5 -10 -13 -10 -17 0 -18 448 -183 581 -214 28 -7 100 16 364
112 213 77 268 103 255 118 -8 10 21 39 122 121 112 91 147 113 221 142 48 19
87 38 87 43 0 18 -22 20 -41 3 -36 -32 -29 -7 22 82 48 83 99 216 114 298 4
20 10 36 14 36 3 0 33 -41 66 -89 33 -49 61 -88 62 -87 1 1 -8 40 -21 86 -77
279 -209 438 -426 512 -84 29 -279 31 -380 5 -153 -40 -214 -48 -375 -54 -188
-6 -286 3 -455 43 -114 27 -276 38 -350 25z m621 -167 c85 -16 101 -16 433 2
207 11 336 -37 511 -191 48 -41 42 -42 -53 -10 -152 51 -191 58 -332 58 -74 0
-148 -5 -165 -10 -23 -8 -6 -9 68 -5 69 3 97 2 97 -7 0 -6 -6 -11 -12 -11 -7
0 -71 -7 -143 -15 -71 -8 -177 -15 -235 -15 -115 0 -392 29 -385 40 3 4 46 6
97 4 68 -3 85 -1 64 6 -106 34 -300 18 -475 -40 -64 -21 -117 -37 -118 -36 -2
1 26 26 61 54 211 169 372 217 587 176z m-215 -393 c36 -22 59 -78 49 -119
-11 -48 -78 -183 -89 -179 -6 2 -28 30 -50 62 -33 48 -41 69 -44 118 -3 44 -1
63 9 71 8 6 20 23 26 39 15 33 53 36 99 8z m866 -28 c8 -10 18 -27 23 -38 5
-13 9 -15 12 -7 18 47 40 -46 24 -103 -11 -39 -81 -165 -93 -165 -12 0 -75
115 -88 162 -15 56 -3 103 37 142 30 30 64 33 85 9z"/>
<path d="M4933 4147 c-46 -35 -53 -47 -25 -47 17 0 82 58 82 73 0 13 -15 6
-57 -26z"/>
<path d="M6439 4153 c6 -10 20 -29 31 -42 16 -19 23 -22 33 -12 12 12 -8 34
-56 62 -16 9 -17 8 -8 -8z"/>
<path d="M4812 4053 l-32 -26 -59 22 c-32 11 -61 21 -66 21 -4 0 15 -18 41
-40 27 -22 53 -40 58 -40 10 0 116 78 116 85 0 12 -28 2 -58 -22z"/>
<path d="M6692 4054 c-49 -19 -68 -22 -83 -13 -19 9 -20 8 -17 -18 3 -26 6
-28 42 -26 46 3 117 37 134 64 16 25 6 24 -76 -7z"/>
<path d="M7262 3915 c-13 -72 -26 -143 -28 -160 -4 -29 -4 -28 10 5 17 44 49
231 44 261 -2 13 -13 -35 -26 -106z"/>
<path d="M4001 3953 c-2 -41 20 -168 39 -228 25 -78 25 -64 -1 70 -28 147 -37
185 -38 158z"/>
<path d="M4143 1923 c-12 -43 -19 -81 -16 -85 2 -5 13 -8 24 -8 10 0 19 -7 19
-15 0 -8 -26 -118 -59 -243 -32 -125 -62 -241 -66 -259 -6 -29 -9 -32 -34 -27
-27 6 -28 4 -49 -72 -12 -43 -20 -79 -18 -81 4 -4 310 -83 312 -80 3 4 36 132
37 147 1 9 -8 16 -20 18 -13 2 -23 10 -23 18 0 32 74 304 81 297 7 -8 75 -229
107 -347 l15 -60 154 158 c85 87 156 157 158 154 2 -2 -14 -72 -35 -156 -22
-84 -40 -155 -40 -158 0 -4 -13 -4 -30 -1 -26 6 -30 3 -36 -21 -3 -15 -12 -49
-19 -77 -8 -27 -11 -53 -7 -57 7 -7 278 -78 298 -78 6 0 19 28 28 63 10 34 20
70 22 80 4 12 0 17 -16 17 -33 0 -34 22 -5 132 34 134 90 355 99 392 6 24 11
28 35 24 28 -4 30 -2 45 56 27 107 34 97 -84 128 -58 15 -116 30 -130 33 -22
5 -43 -12 -156 -122 -72 -70 -142 -138 -156 -151 l-25 -22 -63 207 -63 208
-121 30 c-66 17 -126 31 -132 33 -6 2 -20 -32 -31 -75z m157 14 l85 -22 17
-51 c16 -49 74 -242 106 -354 8 -30 19 -59 24 -65 5 -6 76 59 182 164 l174
174 102 -23 101 -24 -6 -36 c-12 -68 -14 -72 -46 -65 -16 4 -29 4 -29 1 0 -4
-13 -57 -29 -119 -120 -457 -122 -470 -109 -478 7 -5 19 -9 26 -9 15 0 15 -9
1 -66 -8 -30 -16 -43 -25 -40 -7 3 -65 17 -128 33 -125 30 -124 29 -104 95 10
36 14 38 40 33 15 -4 28 -4 28 -1 0 2 18 76 41 163 54 208 68 266 69 278 0 5
-78 -68 -174 -164 -95 -95 -176 -169 -178 -165 -5 8 -35 109 -121 399 -11 38
-22 65 -23 60 -5 -15 -114 -449 -114 -452 0 -2 6 -3 13 -3 34 -1 41 -17 27
-64 -7 -25 -18 -46 -24 -46 -6 0 -62 14 -125 30 -62 17 -116 30 -118 30 -4 0
3 46 13 83 4 11 15 17 34 17 32 0 24 -21 118 350 70 275 66 250 43 250 -29 0
-33 13 -20 64 13 53 10 53 129 23z"/>
<path d="M6765 1874 c-93 -23 -186 -48 -206 -54 l-37 -10 20 -80 c18 -71 23
-80 42 -78 24 3 24 11 6 -272 -21 -323 -19 -309 -46 -316 -15 -4 -23 -12 -20
-19 2 -7 10 -41 17 -75 6 -34 17 -64 24 -66 12 -5 283 61 293 71 3 3 -3 39
-13 80 -15 59 -23 75 -37 75 -15 0 -18 8 -18 43 l0 43 93 23 c50 13 99 25 108
27 10 3 21 -9 32 -32 16 -32 16 -38 3 -48 -13 -10 -12 -21 6 -89 17 -61 25
-76 37 -73 9 3 75 19 146 37 72 17 133 35 137 38 4 3 1 29 -7 56 -7 28 -16 62
-19 77 -5 24 -10 27 -34 22 -24 -4 -31 1 -66 58 -22 35 -62 99 -89 143 -28 44
-65 103 -82 130 -17 28 -46 74 -65 103 -33 54 -33 62 3 75 5 1 1 37 -9 80 -13
56 -22 77 -34 76 -8 -1 -91 -21 -185 -45z m189 -30 c4 -19 9 -41 12 -49 4 -8
-5 -15 -25 -20 -17 -4 -31 -9 -31 -11 0 -6 104 -171 179 -284 31 -47 58 -89
61 -95 6 -11 51 -83 84 -132 13 -20 29 -33 42 -33 17 0 24 -9 33 -47 10 -36 9
-48 0 -54 -13 -7 -210 -59 -228 -59 -11 0 -35 94 -24 97 36 13 36 21 -2 83
-33 55 -41 61 -64 57 -30 -5 -224 -56 -227 -60 -1 -1 -4 -35 -6 -75 -4 -73 -4
-73 21 -70 22 3 26 -3 37 -45 8 -31 9 -49 2 -53 -6 -4 -60 -19 -122 -34 l-111
-27 -12 36 c-16 50 -16 71 1 71 10 0 17 15 20 43 6 48 22 258 31 392 3 50 8
120 11 157 l6 68 -30 -6 c-28 -6 -30 -4 -41 41 -7 26 -9 50 -6 53 7 8 369 99
376 96 4 -2 10 -20 13 -40z"/>
<path d="M6790 1585 c0 -33 -5 -105 -10 -159 -5 -55 -9 -100 -7 -101 1 -1 46
10 99 24 l98 26 -81 125 c-45 69 -85 129 -90 135 -5 5 -9 -15 -9 -50z m81
-117 c23 -40 42 -75 41 -78 -2 -5 -15 -9 -75 -24 l-28 -7 2 91 c1 49 5 90 9
90 4 0 27 -33 51 -72z"/>
<path d="M6830 1436 c0 -40 3 -47 16 -42 9 3 22 6 30 6 16 0 9 16 -25 60 l-21
25 0 -49z"/>
<path d="M5230 1656 l0 -85 28 -3 27 -3 3 -277 2 -278 -30 0 -30 0 0 -85 0
-85 165 0 165 0 0 85 0 85 -30 0 -30 0 0 166 0 167 23 -34 c33 -49 191 -311
198 -329 7 -18 9 -15 134 208 50 89 93 161 98 162 4 0 7 -76 7 -170 l0 -170
-30 0 -30 0 0 -86 0 -87 38 7 c20 3 94 6 165 6 l127 0 0 79 c0 79 0 80 -27 83
l-28 3 0 280 0 280 28 3 27 3 -2 80 -3 79 -140 0 -140 0 -21 -38 c-62 -112
-178 -309 -188 -319 -8 -9 -37 31 -122 170 l-110 182 -137 3 -137 3 0 -85z
m965 4 c0 -54 0 -55 -28 -52 l-28 4 3 -314 3 -313 28 -3 c27 -3 28 -5 25 -55
l-3 -52 -130 0 -130 0 -3 53 -3 52 31 0 31 0 -2 230 c-1 127 -5 230 -8 230 -7
-1 -19 -20 -151 -247 -52 -90 -97 -163 -100 -163 -5 0 -45 66 -207 337 l-53
88 0 -237 0 -238 30 0 c30 0 30 -1 30 -55 l0 -55 -136 0 -135 0 3 53 c3 49 5
52 32 55 l29 4 -6 141 c-4 78 -7 217 -7 310 l0 167 -25 0 c-24 0 -25 3 -25 55
l0 55 103 0 102 0 57 -92 c155 -257 200 -328 207 -328 3 0 27 35 52 78 25 42
81 136 124 209 l78 132 71 4 c39 2 87 3 106 3 l35 -1 0 -55z"/>
</g>
</svg>
